{"title":"Season of the Witch 2011 True.1080p.BluRay 5.1.x264 . NVEE","uid":12108831,"size":2006707465,"categoryP":"video","categoryS":"hd___movies","magnet":"?xt=urn:btih:a9e4ca1ae58900a986af0754e5be05ff1e593182&amp;dn=Season+of+the+Witch+2011+True.1080p.BluRay+5.1.x264+.+NVEE&amp;tr=udp%3A%2F%2Ftracker.openbittorrent.com%3A80&amp;tr=udp%3A%2F%2Fopen.demonii.com%3A1337&amp;tr=udp%3A%2F%2Ftracker.coppersurfer.tk%3A6969&amp;tr=udp%3A%2F%2Fexodus.desync.com%3A6969","seeders":10,"leechers":2,"uploader":".NVEE","files":2,"time":1436507545,"description":"Quick note : \n\nTrackers refresh never most current &amp; so if, \nYou require a torrent release I have posted in the past, not seeding,... \nPlease do not hesitate to inform me in any means you find fit to do so. \nTorrent requests also &quot;Always Welcome.&quot; \n\n \nFULL_INFOs \n\n99.99% &gt;&gt;&gt; SYNCED GUARANTEED \n\n&quot;Totally scrutinized / analyzed to be a verified torrent.&quot; \n___________________________________________ \n\nSource : Blu-ray ~ 1080p \n\n \n\nSpoken Language : English \n\nAudio : 6 ~ Channels Only \n\n \nSubs Info : \n\nEnglish .srt \n\nAll .srt UTF-8 .idx &amp; .ass subs can be turned On/Off \n_____________________________________ \n--------------------------------------------------------------------------------- \n \nGeneral Metadata \n\nComplete name : Season of the Witch.2011.True.1080p.BluRay.5.1.x264 . NVEE.mp4 \nFormat : MPEG-4 \nFormat profile : Base Media \nCodec ID : isom \nFile size : 1.87 GiB \nDuration : 1h 34mn \nOverall bit rate mode : Variable \nOverall bit rate : 2 827 Kbps \nEncoded date : UTC 2015-07-10 03:19:53 \nTagged date : UTC 2015-07-10 03:19:53 \n\n \nVideo \n\nID : 1 \nFormat : AVC \nFormat/Info : Advanced Video Codec \nFormat profile : &lt;a class=&quot;__cf_email__&quot; href=&quot;/cdn-cgi/l/email-protection&quot; data-cfemail=&quot;a7efcec0cfe7eb928996&quot;&gt;[email&amp;#160;protected]&lt;/a&gt;&lt;script data-cfhash='f9e31' type=&quot;text/javascript&quot;&gt;\n/* &lt;![CDATA[ */!function(){try{var t=&quot;currentScript&quot;in document?document.currentScript:function(){for(var t=document.getElementsByTagName(&quot;script&quot;),e=t.length;e--;)if(t[e].getAttribute(&quot;data-cfhash&quot;))return t[e]}();if(t&amp;&amp;t.previousSibling){var e,r,n,i,c=t.previousSibling,a=c.getAttribute(&quot;data-cfemail&quot;);if(a){for(e=&quot;&quot;,r=parseInt(a.substr(0,2),16),n=2;a.length-n;n+=2)i=parseInt(a.substr(n,2),16)^r,e+=String.fromCharCode(i);e=document.createTextNode(e),c.parentNode.replaceChild(e,c)}t.parentNode.removeChild(t);}}catch(u){}}()/* ]]&gt; */&lt;/script&gt; \nFormat settings, CABAC : Yes \nFormat settings, ReFrames : 6 frames \nCodec ID : avc1 \nCodec ID/Info : Advanced Video Coding \nDuration : 1h 34mn \nBit rate : 2 507 Kbps \nMaximum bit rate : 15.1 Mbps \nWidth : 1 920 pixels \nHeight : 1 080 pixels \nDisplay aspect ratio : 16:9 \nFrame rate mode : Constant \nFrame rate : 23.976 fps \nColor space : YUV \nChroma subsampling : 4:2:0 \nBit depth : 8 bits \nScan type : Progressive \nBits/(Pixel*Frame) : 0.050 \nStream size : 1.66 GiB (89%) \nWriting library : x264 core 146 r2538 121396c \n\nEncoded from Physical Blu-ray / Region A \n\n \nAudio \n\nID : 2 \nFormat : AAC \nFormat/Info : Advanced Audio Codec \nFormat profile : LC \nCodec ID : 40 \nDuration : 1h 34mn \nBit rate mode : Variable \nBit rate : 317 Kbps \nMaximum bit rate : 333 Kbps \nChannel(s)_Original : 6 channels \nChannel positions : Front: L C R, Side: L R, LFE \nSampling rate : 48.0 KHz \nCompression mode : Lossy \nStream size : 215 MiB (11%) \nLanguage : English \nEncoded date : UTC 2015-07-10 03:28:55 \nTagged date : UTC 2015-07-10 03:29:33 \n\nEncoded from Physical Blu-ray 6 Channel audio &quot;Only&quot;. \n\n\n \n\n \n\n \n\n\n\n\nEnj0y !","torrent":{"xt":"urn:btih:a9e4ca1ae58900a986af0754e5be05ff1e593182","amp;dn":"Season+of+the+Witch+2011+True.1080p.BluRay+5.1.x264+.+NVEE","amp;tr":["udp%3A%2F%2Ftracker.openbittorrent.com%3A80","udp%3A%2F%2Fopen.demonii.com%3A1337","udp%3A%2F%2Ftracker.coppersurfer.tk%3A6969","udp%3A%2F%2Fexodus.desync.com%3A6969"],"infoHash":"a9e4ca1ae58900a986af0754e5be05ff1e593182","infoHashBuffer":{"type":"Buffer","data":[169,228,202,26,229,137,0,169,134,175,7,84,229,190,5,255,30,89,49,130]},"announce":[],"urlList":[]}}